HIERARCHY
ROOT Hips
{
	OFFSET 0.00 0.00 0.00
	CHANNELS 6 Xposition Yposition Zposition Xrotation Yrotation Zrotation
	JOINT Spine
	{
		OFFSET 0.00000 3.89993 0.00000
		CHANNELS 3 Xrotation Yrotation Zrotation
		JOINT Head
		{
			OFFSET 0.00000 16.77154 0.00000
			CHANNELS 3 Xrotation Yrotation Zrotation
			End Site
			{
				OFFSET 0.00000 4.52755 0.00000
			}
		}
		JOINT LeftShoulder
		{
			OFFSET 0.00000 13.13461 0.00000
			CHANNELS 3 Xrotation Yrotation Zrotation
			JOINT LeftArm
			{
				OFFSET 7.07023 0.00000 0.00000
				CHANNELS 3 Xrotation Yrotation Zrotation
				JOINT LeftForeArm
				{
					OFFSET 11.11520 0.00000 0.00000
					CHANNELS 3 Zrotation Yrotation Xrotation
					JOINT LeftHand
					{
						OFFSET 8.13953 0.00000 0.00000
						CHANNELS 3 Xrotation Yrotation Zrotation
						JOINT LeftHandThumb1
						{
							OFFSET 0.00000 0.00000 0.00000
							CHANNELS 3 Xrotation Yrotation Zrotation
							End Site
							{
								OFFSET 0.00000 0.00000 3.93700
							}
						}
						End Site
						{
							OFFSET 3.93700 0.00000 0.00000
						}
					}
				}
			}
		}
		JOINT RightShoulder
		{
			OFFSET 0.00000 13.13461 0.00000
			CHANNELS 3 Xrotation Yrotation Zrotation
			JOINT RightArm
			{
				OFFSET -7.07023 0.00000 0.00000
				CHANNELS 3 Xrotation Yrotation Zrotation
				JOINT RightForeArm
				{
					OFFSET -11.11520 0.00000 0.00000
					CHANNELS 3 Zrotation Yrotation Xrotation
					JOINT RightHand
					{
						OFFSET -8.13953 0.00000 0.00000
						CHANNELS 3 Xrotation Yrotation Zrotation
						JOINT RightHandThumb1
						{
							OFFSET 0.00000 0.00000 0.00000
							CHANNELS 3 Xrotation Yrotation Zrotation
							End Site
							{
								OFFSET 0.00000 0.00000 3.93700
							}
						}
						End Site
						{
							OFFSET -3.93700 0.00000 0.00000
						}
					}
				}
			}
		}
	}
	JOINT LeftUpLeg
	{
		OFFSET 3.86157 0.00000 0.00000
		CHANNELS 3 Xrotation Yrotation Zrotation
		JOINT LeftLeg
		{
			OFFSET 0.00000 -16.92429 0.00000
			CHANNELS 3 Xrotation Yrotation Zrotation
			JOINT LeftFoot
			{
				OFFSET 0.00000 -16.84146 0.00000
				CHANNELS 3 Xrotation Yrotation Zrotation
				JOINT LeftToeBase
				{
					OFFSET 0.00000 -1.33703 4.98985
					CHANNELS 3 Xrotation Yrotation Zrotation
					End Site
					{
						OFFSET 0.00000 0.00000 2.95275
					}
				}
			}
		}
	}
	JOINT RightUpLeg
	{
		OFFSET -3.86157 0.00000 0.00000
		CHANNELS 3 Xrotation Yrotation Zrotation
		JOINT RightLeg
		{
			OFFSET 0.00000 -16.92429 0.00000
			CHANNELS 3 Xrotation Yrotation Zrotation
			JOINT RightFoot
			{
				OFFSET 0.00000 -16.84146 0.00000
				CHANNELS 3 Xrotation Yrotation Zrotation
				JOINT RightToeBase
				{
					OFFSET 0.00000 -1.33703 4.98985
					CHANNELS 3 Xrotation Yrotation Zrotation
					End Site
					{
						OFFSET 0.00000 0.00000 2.95275
					}
				}
			}
		}
	}
}
MOTION
Frames: 23
Frame Time: 0.008333
 -15.1803 35.2339 -11.2916 4.5899 -2.5561 6.8499 -5.9086 7.1791 -7.4594 6.7342 -0.2100 0.9764 25.7836 11.3062 11.6978 -66.5809 -2.5396 -25.5107 -0.0000 -3.9162 -4.7744 0.0667 -5.0444 0.7587 33.1476 26.2537 0.0000 10.8370 -21.5940 -9.5374 -55.4487 -17.5975 20.7031 -0.0000 27.3822 44.7994 0.7835 -5.7285 7.8014 32.8623 -24.3270 0.0000 -94.2231 3.0142 41.9190 106.9249 -0.0000 0.0000 8.4572 8.2037 -0.2027 17.9739 0.0000 -0.0000 -0.6762 -8.6901 6.9861 0.5209 -0.0000 0.0000 -17.9084 -19.2310 -9.7704 18.2002 0.0000 -0.0000
 -15.2006 35.2338 -11.2705 4.5598 -2.1105 6.9243 -5.9468 6.7408 -7.5255 6.7698 -0.2407 0.9106 25.7692 11.2122 11.6399 -66.5766 -2.6749 -25.5487 0.0000 -3.9009 -4.7551 0.0617 -4.9466 0.7160 33.1476 26.2537 -0.0000 10.8003 -21.6241 -9.6104 -55.5245 -17.7887 20.5917 -0.0000 27.3492 44.7752 0.7717 -5.5587 7.9167 32.8623 -24.3270 0.0000 -94.1230 2.8510 42.3685 106.8112 -0.0000 -0.0000 8.3683 8.3787 -0.2437 18.8211 -0.0000 -0.0000 -0.6529 -8.8638 6.9275 0.5294 -0.0000 -0.0000 -17.9656 -19.4288 -9.7679 17.9702 -0.0000 0.0000
 -15.2222 35.2344 -11.2510 4.5031 -1.6143 7.0087 -5.9529 6.2486 -7.6236 6.7791 -0.2177 0.8734 25.7455 11.1367 11.5900 -66.5477 -2.8437 -25.5869 -0.0000 -3.8472 -4.8122 0.0444 -5.0172 0.5075 33.1476 26.2537 0.0000 10.7613 -21.6619 -9.6926 -55.5478 -17.9845 20.5350 -0.0000 27.3665 44.7568 0.7799 -5.6196 7.9141 32.8623 -24.3270 -0.0000 -93.9889 2.6960 42.7368 106.6729 -0.0000 0.0000 8.4930 8.5156 -0.3631 18.1123 -0.0000 0.0000 -0.5868 -9.1789 6.8608 0.5194 0.0000 0.0000 -18.0784 -19.5158 -9.8492 17.9201 0.0000 -0.0000
 -15.2439 35.2345 -11.2296 4.4833 -1.1832 7.0711 -6.0025 5.8164 -7.6835 6.8079 -0.2712 0.8121 25.7381 11.0394 11.5429 -66.5371 -2.9368 -25.6304 0.0000 -3.8758 -4.8444 0.0535 -4.9892 0.6155 33.1476 26.2537 -0.0000 10.7596 -21.7153 -9.7632 -55.5791 -18.1714 20.4730 -0.0000 27.4159 44.6826 0.7872 -5.6407 7.9582 32.8623 -24.3270 -0.0000 -93.9046 2.5130 43.2091 106.5454 0.0000 0.0000 8.4939 8.6759 -0.4943 18.2488 0.0000 -0.0000 -0.5517 -9.4847 6.8153 0.5271 -0.0000 -0.0000 -18.1709 -19.5672 -9.8431 17.9112 0.0000 0.0000
 -15.2670 35.2346 -11.2137 4.5299 -0.6924 7.1271 -6.1176 5.3163 -7.7474 6.8122 -0.3165 0.7295 25.6963 10.9713 11.4618 -66.5608 -3.0455 -25.6864 0.0000 -3.9198 -4.7741 0.0556 -4.9043 0.6505 33.1476 26.2537 0.0000 10.7528 -21.7405 -9.8335 -55.7036 -18.4247 20.3570 -0.0000 27.5043 44.8593 0.7702 -5.5398 7.9278 32.8623 -24.3270 -0.0000 -93.8560 2.3150 43.5926 106.4195 0.0000 0.0000 8.4337 8.5213 -0.3398 18.4293 0.0000 -0.0000 -0.5834 -9.8411 6.7797 0.5161 -0.0000 0.0000 -18.2504 -19.6123 -9.8076 17.8641 0.0000 -0.0000
 -15.2909 35.2356 -11.1942 4.5472 -0.2465 7.1806 -6.2087 4.8622 -7.8251 6.8205 -0.2570 0.7391 25.7183 10.9434 11.3998 -66.6851 -3.1430 -25.7812 -0.0000 -3.9689 -4.6974 0.0652 -4.8848 0.7659 33.1476 26.2537 0.0000 10.7079 -21.7572 -9.9209 -55.7162 -18.6891 20.3045 0.0000 27.6103 44.7092 0.7829 -5.7173 7.8104 32.8623 -24.3270 -0.0000 -93.8344 2.1536 44.0433 106.3028 0.0000 -0.0000 8.5280 8.6541 -0.5554 18.1848 0.0000 -0.0000 -0.5736 -10.1329 6.7453 0.4875 -0.0000 0.0000 -18.3270 -19.6900 -9.7752 17.8829 0.0000 -0.0000
 -15.3149 35.2374 -11.1756 4.5764 0.2245 7.2634 -6.3077 4.4140 -7.9446 6.8248 -0.2766 0.7582 25.7227 10.8720 11.3453 -66.6092 -3.3457 -25.8476 0.0000 -3.9865 -4.9291 0.0842 -4.9128 0.9828 33.1476 26.2537 0.0000 10.7333 -21.8289 -9.9394 -55.7793 -18.8921 20.2238 0.0000 27.6804 44.6157 0.8026 -5.7403 7.9727 32.8623 -24.3270 -0.0000 -93.8174 2.0468 44.4487 106.1799 -0.0000 0.0000 8.5712 8.7136 -0.5928 17.9915 0.0000 -0.0000 -0.5913 -10.5039 6.6813 0.4879 -0.0000 0.0000 -18.4194 -19.7131 -9.7455 17.9106 0.0000 -0.0000
 -15.3411 35.2391 -11.1577 4.6559 0.6688 7.3372 -6.4612 3.9908 -8.0587 6.8209 -0.2888 0.7602 25.7461 10.8422 11.3122 -66.6563 -3.4678 -25.9413 -0.0000 -4.0113 -4.7793 0.0646 -4.9426 0.7492 33.1476 26.2537 -0.0000 10.7218 -21.9112 -9.9696 -55.8444 -19.1077 20.1636 -0.0000 27.7920 44.6203 0.8079 -5.8012 7.9418 32.8623 -24.3270 0.0000 -93.8536 1.9284 44.8990 106.0577 -0.0000 -0.0000 8.6003 8.7182 -0.6154 18.2468 -0.0000 0.0000 -0.7076 -11.0053 6.6157 0.6165 0.0000 -0.0000 -18.5520 -19.5868 -9.5863 17.9761 -0.0000 0.0000
 -15.3692 35.2420 -11.1379 4.7023 1.1505 7.4289 -6.5877 3.5495 -8.2254 6.8365 -0.3323 0.8359 25.7962 10.7966 11.2992 -66.7531 -3.5748 -26.0326 -0.0000 -4.0737 -4.7148 0.0700 -4.9042 0.8188 33.1476 26.2537 -0.0000 10.7258 -21.9738 -9.9571 -56.0695 -19.3846 20.0241 -0.0000 27.8639 44.7917 0.7906 -5.6873 7.9274 32.8623 -24.3270 0.0000 -93.8511 1.8549 45.2983 105.9154 0.0000 -0.0000 8.6658 8.7094 -0.5256 18.0143 -0.0000 0.0000 -0.7104 -11.1855 6.5572 0.5083 0.0000 -0.0000 -18.6183 -19.8241 -9.5730 18.0203 0.0000 -0.0000
 -15.3957 35.2458 -11.1188 4.7681 1.6399 7.5270 -6.7358 3.0991 -8.4039 6.8463 -0.3943 0.9062 25.8691 10.7567 11.2758 -66.7227 -3.7600 -26.1071 -0.0000 -4.1223 -4.7224 0.0661 -4.8469 0.7824 33.1476 26.2537 -0.0000 10.7529 -22.0579 -9.9077 -56.1047 -19.5269 19.9159 0.0000 27.9082 44.7412 0.8018 -5.7604 7.9382 32.8623 -24.3270 0.0000 -93.8801 1.7952 45.6818 105.7732 -0.0000 -0.0000 8.7151 8.7228 -0.6184 18.0044 -0.0000 0.0000 -0.7572 -11.5040 6.4820 0.4697 0.0000 -0.0000 -18.7163 -19.9694 -9.4647 18.1111 -0.0000 0.0000
 -15.4245 35.2501 -11.0980 4.8347 2.1284 7.6341 -6.8809 2.6773 -8.6070 6.8397 -0.4481 0.9970 25.8133 10.7103 11.3175 -66.5989 -3.9366 -26.2313 0.0000 -4.1484 -4.7729 0.0730 -4.9417 0.8476 33.1476 26.2537 0.0000 10.7662 -22.2025 -9.8424 -56.1230 -19.6477 19.8393 -0.0000 27.9722 44.8318 0.8010 -5.7740 7.9120 32.8623 -24.3270 0.0000 -93.9084 1.7668 46.0661 105.6374 0.0000 -0.0000 8.7213 8.6996 -0.5374 18.0415 0.0000 -0.0000 -0.8074 -11.8749 6.4030 0.4497 -0.0000 -0.0000 -18.8539 -20.0607 -9.3954 18.3239 -0.0000 0.0000
 -15.4528 35.2558 -11.0760 4.9095 2.6286 7.7405 -7.0598 2.2089 -8.8087 6.8501 -0.4144 1.0846 25.8601 10.6782 11.3006 -66.5284 -4.1471 -26.3033 0.0000 -4.1328 -4.8389 0.0686 -5.0197 0.7835 33.1476 26.2537 0.0000 10.8156 -22.2901 -9.7861 -56.1870 -19.8194 19.7385 0.0000 28.0593 44.8164 0.7982 -5.7677 7.8930 32.8623 -24.3270 0.0000 -93.9513 1.7378 46.4341 105.5005 0.0000 -0.0000 8.7768 8.6822 -0.6283 18.0393 -0.0000 -0.0000 -0.8669 -12.3480 6.3159 0.4507 -0.0000 0.0000 -18.9521 -20.0588 -9.2275 18.4280 -0.0000 0.0000
 -15.4809 35.2631 -11.0516 4.9529 3.1206 7.8637 -7.2040 1.7721 -9.0322 6.8621 -0.4499 1.1680 25.9204 10.6107 11.2990 -66.4575 -4.3140 -26.3699 -0.0000 -4.1766 -4.8894 0.0720 -5.0137 0.8235 33.1476 26.2537 0.0000 10.8256 -22.4101 -9.7366 -56.1632 -19.9694 19.6501 -0.0000 28.1432 44.8213 0.7931 -5.7234 7.9031 32.8623 -24.3270 -0.0000 -93.9471 1.7438 46.7930 105.3594 -0.0000 -0.0000 8.7531 8.6306 -0.6720 18.1492 -0.0000 0.0000 -0.8952 -12.7801 6.2087 0.4452 -0.0000 0.0000 -19.0316 -20.0962 -8.9944 18.4826 -0.0000 -0.0000
 -15.5077 35.2714 -11.0276 4.9884 3.6118 8.0039 -7.3396 1.3429 -9.2785 6.8898 -0.5288 1.2450 25.9312 10.4945 11.3558 -66.4468 -4.3354 -26.4269 -0.0000 -4.2429 -4.7896 0.0719 -4.9744 0.8286 33.1476 26.2537 -0.0000 10.8445 -22.5362 -9.6803 -56.1258 -20.1198 19.5748 0.0000 28.2345 44.8402 0.8069 -5.8421 7.8774 32.8623 -24.3270 0.0000 -93.9402 1.7899 47.1515 105.2177 0.0000 -0.0000 8.7373 8.5688 -0.6396 18.1929 -0.0000 0.0000 -0.9246 -13.2259 6.0809 0.4486 0.0000 -0.0000 -19.1342 -20.1064 -8.8060 18.6469 0.0000 -0.0000
 -15.5363 35.2811 -10.9967 5.0118 4.1864 8.1419 -7.5089 0.8176 -9.5385 6.9410 -0.5296 1.3334 25.9619 10.4142 11.3587 -66.3429 -4.4915 -26.4739 0.0000 -4.2618 -4.8420 0.0729 -4.9544 0.8435 33.1476 26.2537 -0.0000 10.9734 -22.6617 -9.5781 -56.1416 -20.2436 19.4850 0.0000 28.3113 44.7718 0.7838 -5.7430 7.7849 32.8623 -24.3270 -0.0000 -93.9343 1.8528 47.4256 105.0630 0.0000 0.0000 8.7777 8.5758 -0.7091 18.1054 0.0000 -0.0000 -0.9090 -13.8337 5.9600 0.4168 0.0000 0.0000 -19.2461 -20.0263 -8.5945 18.9115 0.0000 -0.0000
 -15.5613 35.2912 -10.9722 5.0400 4.6282 8.2727 -7.6364 0.4039 -9.7595 6.9485 -0.5334 1.3843 26.0378 10.3918 11.3423 -66.3348 -4.6588 -26.5753 -0.0000 -4.2096 -4.9140 0.0749 -4.9786 0.8626 33.1476 26.2537 0.0000 11.0277 -22.7865 -9.5216 -56.1766 -20.3912 19.4117 0.0000 28.3871 44.8143 0.7908 -5.7801 7.8041 32.8623 -24.3270 -0.0000 -93.9081 1.8981 47.8110 104.9346 -0.0000 0.0000 8.7960 8.4951 -0.6950 18.0991 0.0000 0.0000 -0.9381 -14.2213 5.8346 0.4266 0.0000 0.0000 -19.3497 -20.0475 -8.3462 19.1613 0.0000 0.0000
 -15.5867 35.2996 -10.9529 5.0644 5.1823 8.3538 -7.7697 -0.1211 -9.9322 6.9644 -0.5794 1.4185 26.0270 10.2932 11.3933 -66.2961 -4.6651 -26.6692 -0.0000 -4.2144 -4.9234 0.0775 -4.9554 0.8966 33.1476 26.2537 -0.0000 11.0767 -22.9230 -9.4953 -56.1373 -20.5304 19.3588 -0.0000 28.4381 44.8087 0.7747 -5.7159 7.7316 32.8623 -24.3270 0.0000 -93.9096 1.8995 48.0348 104.8004 0.0000 -0.0000 8.8007 8.4799 -0.7501 18.1820 -0.0000 0.0000 -0.9695 -14.7308 5.7562 0.4589 -0.0000 0.0000 -19.4116 -20.0647 -7.9691 19.2101 -0.0000 -0.0000
 -15.6114 35.3093 -10.9274 5.0891 5.6650 8.4643 -7.9243 -0.5943 -10.1334 6.9990 -0.5742 1.4406 26.0296 10.2274 11.4003 -66.1809 -4.7603 -26.7486 0.0000 -4.1930 -5.1508 0.0830 -4.9647 0.9595 33.1476 26.2537 -0.0000 11.1790 -23.0535 -9.4406 -56.1249 -20.6258 19.3185 0.0000 28.4799 44.8474 0.7767 -5.7365 7.7239 32.8623 -24.3270 -0.0000 -93.8771 1.9374 48.3398 104.6706 -0.0000 0.0000 8.7766 8.4439 -0.7237 18.2089 0.0000 -0.0000 -1.0007 -15.1804 5.6464 0.5004 0.0000 0.0000 -19.5177 -20.0163 -7.6484 19.4870 0.0000 -0.0000
 -15.6359 35.3215 -10.8967 5.0883 6.1539 8.6023 -8.0689 -1.0370 -10.3686 7.0612 -0.5909 1.4818 26.0240 10.1344 11.4560 -66.1930 -4.7740 -26.8514 -0.0000 -4.1252 -5.0194 0.0684 -4.8701 0.8059 33.1476 26.2537 -0.0000 11.3297 -23.2104 -9.3530 -56.0451 -20.7122 19.2781 -0.0000 28.5600 44.8896 0.7736 -5.7793 7.6373 32.8623 -24.3270 0.0000 -93.8190 2.0189 48.6463 104.5442 -0.0000 -0.0000 8.8004 8.4063 -0.7468 18.1258 0.0000 -0.0000 -1.0043 -15.6226 5.5117 0.5327 0.0000 0.0000 -19.6757 -19.9964 -7.3039 19.9668 -0.0000 -0.0000
 -15.6595 35.3343 -10.8662 5.1199 6.5700 8.7436 -8.2416 -1.4031 -10.6035 7.1377 -0.6330 1.5465 26.1186 10.0603 11.4804 -66.2945 -4.7685 -26.9519 -0.0000 -4.1143 -5.0506 0.0702 -4.9937 0.8065 33.1476 26.2537 -0.0000 11.4530 -23.3575 -9.2669 -55.9925 -20.7934 19.1976 0.0000 28.6092 44.8745 0.7836 -5.7504 7.7727 32.8623 -24.3270 -0.0000 -93.7813 2.1135 49.0250 104.4183 0.0000 0.0000 8.8073 8.3663 -0.7215 17.9581 -0.0000 0.0000 -1.0605 -15.9393 5.3641 0.5971 0.0000 -0.0000 -19.8397 -20.0305 -6.9532 20.3720 -0.0000 0.0000
 -15.6816 35.3492 -10.8360 5.1756 7.0881 8.8614 -8.4739 -1.8881 -10.8204 7.2377 -0.6283 1.5723 26.1777 9.9695 11.4869 -66.2923 -4.8059 -27.0249 -0.0000 -4.0384 -5.1508 0.0623 -4.8551 0.7355 33.1476 26.2537 -0.0000 11.6095 -23.4838 -9.1824 -55.9512 -20.8667 19.1081 0.0000 28.6324 44.9942 0.7636 -5.6426 7.7197 32.8623 -24.3270 0.0000 -93.7552 2.1859 49.2549 104.2848 0.0000 -0.0000 8.8021 8.3059 -0.7461 18.1605 0.0000 -0.0000 -1.1251 -16.3851 5.2318 0.6384 0.0000 0.0000 -19.8884 -20.0285 -6.4925 20.2595 0.0000 -0.0000
 -15.7023 35.3645 -10.8094 5.2216 7.5760 9.0007 -8.6851 -2.3544 -11.0523 7.3203 -0.6512 1.6012 26.2048 9.9031 11.4945 -66.3428 -4.7903 -27.1262 -0.0000 -3.9748 -5.1165 0.0757 -4.9547 0.8769 33.1476 26.2537 -0.0000 11.7515 -23.5966 -9.1300 -55.8922 -20.9870 19.0453 0.0000 28.7059 44.9624 0.7854 -5.7464 7.7966 32.8623 -24.3270 -0.0000 -93.7175 2.2917 49.4960 104.1560 0.0000 -0.0000 8.8517 8.2899 -0.7395 18.0778 -0.0000 0.0000 -1.2171 -16.7936 5.0699 0.7233 0.0000 -0.0000 -19.9798 -19.9587 -6.1772 20.8000 -0.0000 0.0000
 -15.7208 35.3811 -10.7807 5.2554 8.0406 9.1536 -8.8866 -2.7699 -11.2923 7.4121 -0.6958 1.6237 26.2231 9.8171 11.5196 -66.4368 -4.7492 -27.2549 0.0000 -3.8784 -5.1819 0.0740 -5.0451 0.8419 33.1476 26.2537 -0.0000 11.8379 -23.7094 -9.1035 -55.8135 -21.1400 18.9576 -0.0000 28.7731 44.9369 0.7786 -5.7626 7.7078 32.8623 -24.3270 0.0000 -93.6406 2.4132 49.7528 104.0108 -0.0000 0.0000 8.9231 8.2544 -0.7727 17.9037 0.0000 -0.0000 -1.2837 -17.2202 4.8996 0.7598 -0.0000 0.0000 -20.1792 -19.9571 -5.9313 21.1261 0.0000 -0.0000
